<!--?xml version="1.0" encoding="utf-8"?-->
<!-- Generator: Adobe Illustrator 18.1.1, SVG Export Plug-In . SVG Version: 6.00 Build 0)  -->

<svg version="1.1" id="_x32_" xmlns="http://www.w3.org/2000/svg" xmlns:xlink="http://www.w3.org/1999/xlink" x="0px" y="0px" viewBox="0 0 512 512" style="width: 256px; height: 256px; opacity: 1;" xml:space="preserve">
<style type="text/css">
	.st0{fill:#4B4B4B;}
</style>
<g>
	<path class="st0" d="M381.495,0c-0.441,0-53.628,67.95-89.265,133.118c0.687,1.058,1.372,2.097,2.059,3.166
		c58.647,91.157,87.872,158.225,89.372,204.94c65.686-1.166,118.608-54.696,118.608-120.676C502.27,153.843,382.161,0,381.495,0z"></path>
	<path class="st0" d="M9.73,345.039C9.73,437.255,84.486,512,176.691,512c92.206,0,166.961-74.745,166.961-166.961
		c0-92.215-166.04-304.882-166.961-304.882C175.769,40.157,9.73,252.824,9.73,345.039z M119.946,421.863
		c-22.294,0-40.373-18.078-40.373-40.373c0-22.294,18.079-40.372,40.373-40.372s40.373,18.078,40.373,40.372
		C160.319,403.784,142.24,421.863,119.946,421.863z"></path>
</g>
</svg>
